<?xml version="1.0" standalone="no"?>
<!DOCTYPE svg PUBLIC "-//W3C//DTD SVG 20010904//EN"
 "http://www.w3.org/TR/2001/REC-SVG-20010904/DTD/svg10.dtd">
<svg version="1.0" xmlns="http://www.w3.org/2000/svg"
 width="195.000000pt" height="195.000000pt" viewBox="0 0 195.000000 195.000000"
 preserveAspectRatio="xMidYMid meet">
<metadata>
Created by potrace 1.14, written by Peter Selinger 2001-2017
</metadata>
<g transform="translate(0.000000,195.000000) scale(0.100000,-0.100000)"
fill="#000000" stroke="none">
<path d="M990 1791 c0 -5 -13 -14 -30 -21 -16 -7 -30 -16 -30 -21 0 -5 -6 -9
-14 -9 -19 0 -44 -42 -37 -62 5 -13 6 -746 2 -804 -1 -7 -14 -10 -31 -9 -16 1
-30 -2 -30 -7 0 -5 -5 -6 -10 -3 -7 4 -9 -3 -6 -19 3 -16 0 -26 -7 -26 -7 -1
-2 -6 10 -13 12 -7 55 -12 102 -11 l79 1 1 -79 c0 -43 3 -83 6 -88 3 -5 2 -11
-3 -14 -4 -2 -7 -25 -5 -50 1 -25 1 -46 -1 -46 -2 0 -20 14 -41 30 -21 17 -35
30 -31 30 4 0 -6 13 -21 28 -35 36 -108 136 -91 126 6 -4 2 6 -10 23 -12 17
-22 35 -22 41 0 5 -7 15 -15 22 -8 7 -13 15 -11 19 2 3 -1 17 -7 31 -5 14 -11
30 -13 35 -1 6 -7 24 -12 42 -6 17 -8 34 -4 37 3 3 0 6 -7 6 -7 0 -11 6 -8 14
3 8 0 37 -7 64 -15 54 -12 59 54 104 14 10 21 18 16 18 -5 0 5 13 22 28 18 16
30 31 27 34 -3 3 2 5 12 5 36 0 38 3 35 42 -4 39 -5 40 -42 38 -28 -1 -43 -8
-57 -26 -10 -14 -26 -33 -35 -43 -10 -10 -15 -18 -12 -18 4 0 -14 -16 -39 -35
-25 -19 -51 -35 -56 -35 -6 0 -10 -3 -10 -7 1 -5 0 -12 -1 -18 -5 -24 -4 -50
2 -55 4 -3 8 -32 10 -64 2 -32 6 -60 10 -63 5 -2 8 -14 8 -27 0 -12 3 -26 8
-30 4 -4 7 -11 8 -14 6 -39 18 -72 25 -72 5 0 9 -7 9 -16 0 -14 16 -51 42 -94
5 -8 11 -23 14 -32 4 -10 11 -18 17 -18 6 0 8 -3 4 -6 -5 -6 5 -21 55 -77 15
-17 24 -35 21 -41 -3 -6 -3 -8 1 -5 3 3 31 -17 60 -45 103 -98 146 -126 146
-95 0 5 4 8 9 4 6 -3 13 1 18 9 4 7 24 23 43 35 19 11 31 21 27 21 -4 0 15 22
43 49 27 27 50 52 50 56 0 4 11 18 26 31 14 13 21 24 17 24 -4 0 -1 6 7 13 9
7 33 47 54 90 22 42 42 77 45 77 3 0 7 14 8 32 1 17 8 35 15 40 7 4 10 8 6 8
-3 0 0 20 7 44 8 24 11 47 8 50 -4 3 -1 6 4 6 6 0 10 15 9 33 -1 17 2 38 7 45
5 6 7 12 4 12 -3 0 -1 16 3 35 7 31 4 40 -16 62 -13 14 -24 23 -24 19 0 -4
-24 17 -52 47 -65 68 -78 84 -73 89 3 2 -58 4 -134 4 -77 -1 -142 -4 -145 -7
-13 -13 -15 -52 -3 -63 13 -12 67 -13 85 -2 6 3 13 3 16 -2 6 -9 47 -8 64 2 7
4 12 3 12 -2 0 -5 11 -7 23 -5 17 3 34 -5 58 -26 18 -17 29 -31 24 -32 -6 0 0
-4 13 -10 14 -5 20 -13 16 -20 -4 -7 -3 -9 3 -6 16 10 62 -51 56 -73 -3 -11
-8 -18 -12 -16 -3 2 -6 -12 -7 -32 -2 -54 -12 -97 -39 -163 -13 -32 -21 -59
-17 -59 4 0 2 -4 -4 -8 -6 -4 -24 -32 -40 -62 -16 -30 -35 -59 -41 -63 -7 -4
-13 -14 -13 -20 0 -7 -32 -46 -70 -87 -67 -71 -70 -74 -68 -45 1 17 -1 36 -6
43 -4 7 -4 12 1 12 4 0 7 46 6 103 l-1 103 76 -1 c90 -1 111 7 109 38 -2 29
-17 43 -47 42 -14 0 -27 2 -30 6 -3 4 -5 82 -4 173 1 91 -3 163 -7 160 -5 -3
-9 -1 -9 4 0 4 -13 8 -30 8 l-30 0 0 -176 0 -176 -62 1 -63 0 -1 413 c0 270 3
412 9 412 6 0 18 7 28 16 17 15 20 15 47 -5 16 -11 33 -17 36 -13 4 4 7 -15 6
-43 -4 -110 -3 -113 30 -110 17 1 34 6 38 10 10 9 12 176 2 170 -4 -3 -10 5
-13 16 -3 12 -10 18 -16 14 -6 -3 -11 -1 -11 5 0 10 -48 35 -62 32 -5 -1 -8 3
-8 8 0 6 -13 10 -30 10 -16 0 -30 -4 -30 -9z"/>
<path d="M700 1514 c0 -6 -8 -11 -17 -11 -36 0 -44 -3 -41 -15 3 -19 -40 -99
-71 -130 -14 -15 -35 -28 -46 -28 -17 0 -17 -2 -5 -10 12 -8 11 -10 -7 -10
-12 0 -25 -5 -28 -10 -4 -6 -10 -8 -15 -5 -5 3 -15 -1 -23 -9 -8 -8 -17 -13
-20 -10 -10 11 -4 -201 7 -215 8 -11 8 -13 -1 -7 -7 4 -13 3 -13 -1 0 -5 6
-15 13 -22 6 -8 7 -11 1 -8 -6 3 -11 0 -11 -8 0 -8 4 -12 10 -8 5 3 8 -5 6
-18 -1 -13 3 -42 9 -63 6 -22 9 -43 6 -48 -3 -4 0 -8 6 -8 6 0 9 -4 6 -8 -3
-5 2 -21 9 -36 8 -16 12 -32 9 -37 -3 -5 2 -12 10 -15 9 -3 14 -10 11 -14 -5
-8 39 -106 75 -167 11 -18 18 -33 15 -33 -2 0 6 -11 18 -24 35 -38 66 -76 61
-76 -3 0 7 -12 21 -27 14 -15 25 -31 25 -36 0 -4 4 -6 8 -3 4 2 17 -9 27 -25
11 -16 28 -32 38 -35 10 -3 25 -16 33 -30 9 -13 20 -24 25 -24 9 0 38 -21 71
-53 10 -10 24 -15 31 -11 7 4 9 4 5 -1 -4 -4 5 -15 20 -23 31 -17 72 -24 72
-13 0 7 34 26 53 30 4 0 15 9 25 19 31 28 62 52 69 52 3 0 21 16 39 35 19 18
34 32 34 30 0 -2 13 8 29 23 15 15 27 28 25 30 -1 2 11 16 27 31 16 15 26 31
22 34 -3 4 1 7 11 7 9 0 15 4 12 9 -4 5 -3 11 2 13 24 10 145 225 136 240 -3
4 0 8 5 8 6 0 11 6 11 13 0 6 7 25 15 40 8 16 16 42 17 58 1 16 5 29 9 29 3 0
6 10 5 23 -1 12 2 25 6 28 5 3 9 24 11 47 1 23 5 42 10 42 4 0 7 5 7 11 0 5
-6 7 -12 3 -10 -6 -10 -5 -1 7 7 9 12 55 12 125 l-1 111 -56 23 c-60 25 -115
73 -127 109 -3 12 -10 19 -15 16 -4 -3 -11 12 -15 34 -5 28 -13 41 -28 46 -33
11 -41 12 -52 6 -20 -11 -40 -10 -47 2 -6 9 -8 8 -8 -2 0 -9 -4 -10 -12 -5
-12 9 -32 10 -50 4 -21 -7 -34 -5 -47 4 -11 8 -13 8 -8 0 4 -7 -10 -11 -43
-10 -32 0 -47 3 -43 10 5 8 3 8 -8 0 -8 -5 -26 -10 -41 -9 -28 1 -42 -18 -36
-46 7 -32 23 -35 182 -34 141 1 162 -1 178 -17 10 -10 18 -24 18 -32 0 -8 18
-33 40 -56 22 -23 40 -47 40 -53 0 -7 4 -6 10 3 5 8 10 10 10 4 0 -6 18 -20
39 -32 l40 -23 -1 -64 c-1 -44 -5 -62 -12 -58 -8 5 -8 3 0 -8 6 -8 10 -23 8
-34 -1 -11 -6 -42 -9 -70 -4 -27 -12 -56 -17 -62 -6 -7 -8 -22 -5 -33 3 -11 1
-20 -4 -20 -5 0 -9 -11 -9 -25 0 -14 -5 -25 -11 -25 -6 0 -9 -7 -6 -15 4 -8 2
-17 -3 -20 -6 -4 -10 -15 -10 -26 0 -10 -4 -19 -9 -19 -5 0 -12 -12 -16 -27
-3 -15 -10 -30 -15 -33 -5 -3 -10 -12 -12 -20 -3 -14 -7 -20 -35 -54 -7 -8
-13 -19 -13 -23 0 -11 -37 -58 -73 -95 -15 -15 -25 -28 -22 -28 3 0 -18 -22
-47 -49 -79 -74 -87 -81 -96 -81 -4 0 -14 -9 -22 -19 -7 -11 -17 -18 -21 -15
-4 2 -14 -4 -21 -13 -15 -21 -58 -30 -67 -15 -3 6 -12 12 -20 14 -8 2 -27 15
-43 30 -16 16 -32 28 -36 28 -10 0 -152 138 -152 146 0 4 -11 17 -24 29 -14
13 -22 26 -19 29 4 3 1 6 -5 6 -7 0 -12 7 -12 15 0 8 -5 15 -11 15 -5 0 -7 5
-4 10 3 6 2 10 -2 10 -5 0 -17 17 -28 38 -11 20 -23 39 -26 42 -3 3 -14 26
-24 52 -10 26 -21 45 -25 43 -5 -3 -6 3 -3 14 3 10 0 22 -6 25 -6 4 -11 21
-11 37 0 17 -4 28 -9 24 -6 -3 -8 4 -6 16 3 13 0 28 -5 34 -6 7 -11 25 -12 41
-1 16 -6 35 -11 42 -6 8 -5 12 3 12 8 0 9 4 3 13 -5 6 -9 28 -8 47 1 19 -2 45
-7 57 -4 12 -4 25 1 27 5 3 6 17 4 30 -4 21 0 28 23 38 45 20 134 99 134 118
0 6 5 8 12 4 7 -5 9 -2 6 8 -7 18 37 73 51 64 5 -4 12 -2 16 4 4 6 11 7 17 4
6 -4 28 -8 48 -9 29 -1 38 3 47 22 6 13 7 21 2 17 -5 -3 -9 0 -9 5 0 6 4 11
10 11 5 0 2 9 -7 20 -9 11 -21 16 -27 12 -10 -7 -31 -8 -38 -2 -9 7 -37 7 -33
0 8 -13 -39 -8 -47 5 -5 7 -8 6 -8 -1z"/>
</g>
</svg>
